<svg width="94" height="82" viewBox="0 0 94 82" fill="none" xmlns="http://www.w3.org/2000/svg">
<g clip-path="url(#clip0_100_40)">
<path fill-rule="evenodd" clip-rule="evenodd" d="M35.1366 12.9736L33.0836 0.0552063L28.8193 11.9998L35.1366 12.9736ZM16.999 2.35228L18.6032 14.9314L24.2849 12.0528L16.999 2.35228ZM49.917 8.5L44.8715 19.9999L39.3682 14.5L49.917 8.5ZM29.7372 49C38.6028 49 45.7898 41.165 45.7898 31.5C45.7898 21.835 38.6028 14 29.7372 14C20.8716 14 13.6846 21.835 13.6846 31.5C13.6846 41.165 20.8716 49 29.7372 49ZM47.7232 31.5119L58.6012 26.8353L47.1279 23.3988L47.7232 31.5119ZM12.8313 22.9814L6.60742 12.2457L16.9164 17.8028L12.8313 22.9814ZM0.358398 26.8577L11.0044 32.0147L11.7621 25.2347L0.358398 26.8577Z" fill="#FFEDCB"/>
<path fill-rule="evenodd" clip-rule="evenodd" d="M36.8287 37.3258C30.5819 34.4477 23.446 35.0246 17.657 38.8757L15.0411 40.616C14.4382 41.017 13.7697 41.2865 13.0725 41.4094L4.44624 42.93C2.19009 43.3277 1.24027 45.6902 1.75976 47.6284V68.5981H93.4891V45.5981H93.145C93.7256 43.8318 93.008 41.5693 90.8858 41.0549C90.7142 41.0132 90.5454 40.9557 90.3822 40.883L81.5404 36.9477C79.2351 35.9217 76.6789 35.7781 74.2892 36.5402L65.123 39.4633C64.9538 39.5173 64.7807 39.5556 64.6055 39.5778L64.5765 39.5816L63.4233 38.6201C60.5828 36.2517 56.9172 35.3981 53.437 36.2945L42.524 39.1053L41.706 39.0944C40.9997 39.085 40.302 38.926 39.6515 38.6263L36.8287 37.3258Z" fill="#E9ECF8"/>
<path fill-rule="evenodd" clip-rule="evenodd" d="M36.8287 50.7277C30.5819 47.8496 23.446 48.4265 17.657 52.2776L15.0411 54.0179C14.4382 54.4189 13.7697 54.6884 13.0725 54.8113L4.44624 56.3319C2.19009 56.7296 1.24027 59.0921 1.75976 61.0303V82H93.4891V59H93.3402C93.9244 57.2337 93.2023 54.9712 91.0668 54.4568C90.8942 54.4151 90.7244 54.3576 90.5601 54.2849L81.6632 50.3496C79.3436 49.3236 76.7714 49.18 74.3668 49.9421L65.1435 52.8652C64.9732 52.9192 64.7991 52.9575 64.6228 52.9797L64.5789 52.9855L63.4233 52.022C60.5828 49.6536 56.9172 48.8 53.437 49.6964L42.5241 52.5073L41.706 52.4964C40.9997 52.4869 40.302 52.3279 39.6515 52.0282L36.8287 50.7277Z" fill="#FFE5B2"/>
</g>
<defs>
<clipPath id="clip0_100_40">
<rect width="94" height="82" fill="white"/>
</clipPath>
</defs>
</svg>
